<svg width="256" height="134" viewBox="0 0 256 134" fill="none" xmlns="http://www.w3.org/2000/svg">
<path d="M200.276 86.4791C175.957 88.8332 157.679 91.7305 133.91 96.4386H133.727C133.282 96.4386 133.021 96.1799 133.099 95.8695C138.93 77.7097 145.572 59.6274 146.723 56.4973C146.906 56.1093 149.024 54.8417 151.142 53.5483C152.999 52.41 153.26 51.9444 153.26 51.5046C153.26 50.5475 148.475 47.0293 146.801 47.0293C145.468 47.0293 144.866 48.2452 143.977 49.9784L142.827 52.2031C142.748 52.3842 142.46 52.4618 142.304 52.3842C142.121 52.3324 141.519 51.9444 140.525 51.2977C138.486 50.0301 135.662 48.2193 133.178 48.2193C128.131 48.2193 122.666 54.5571 119.397 60.1707C117.174 64.0768 114.272 67.1293 111.003 70.3888C107.996 73.3896 103.237 78.1236 99.602 81.9521C99.0791 82.5212 98.0069 82.3402 98.19 81.6934C99.9681 75.6143 102.531 69.4317 104.1 65.7066C104.989 63.6629 105.59 62.266 105.59 61.7487C105.59 61.2313 105.329 60.7915 104.963 60.5328L101.171 58.1788C100.543 57.7907 99.942 57.739 99.3928 57.739C98.4253 57.739 97.3532 58.1788 96.8302 58.8772C91.2605 66.6637 81.9775 76.9077 76.4078 82.9869C75.8848 83.556 75.1788 83.2973 75.3356 82.5988C77.1138 75.9506 80.4609 64.827 83.1019 56.7043C83.1804 56.3162 83.285 55.8764 83.285 55.3073C83.285 52.8239 79.6503 50.1336 78.9442 49.6938C78.2382 49.2541 77.5322 49.0471 76.9046 49.0471C76.0155 49.0471 75.048 49.3575 74.525 50.0043C71.0472 54.4019 61.3459 66.7413 56.4821 73.7776C56.1683 74.2174 55.2531 74.0363 55.3316 73.5448C56.4821 65.5255 58.6786 51.7633 60.1169 40.1224V39.7344C60.1169 37.8201 58.5218 36.2938 56.4821 35.1297C54.9916 34.3019 53.3965 33.7846 52.0629 33.7846C50.8339 33.7846 49.7618 34.2243 49.0558 35.3884C34.726 58.929 15.5587 93.9811 1.4905 113.202C0.522983 114.547 0 116.021 0 117.418C0 119.332 0.967518 121.247 2.56261 122.799L6.53728 126.705C7.06027 127.222 7.94934 127.533 8.83841 127.533C9.91052 127.533 11.0611 127.093 11.4795 126.265C15.1926 119.436 22.3575 104.277 30.7514 86.6861C36.5826 74.4243 42.6492 60.9985 48.8204 48.3487C49.0558 47.7795 50.0756 47.9347 49.9971 48.4004C48.219 68.6039 39.5636 90.3336 39.5636 93.6707C39.5636 94.9382 40.0082 96.2834 40.9757 97.4992L42.4662 99.4135C42.9892 100.112 44.0613 100.552 45.1073 100.552C46.2578 100.552 47.4868 99.905 48.036 99.0255C53.3181 87.6432 64.2223 70.6734 71.3871 62.1367C71.7271 61.7228 72.6423 61.9815 72.4854 62.4471C70.4981 68.8625 66.3142 81.4865 61.5551 94.6795C61.2936 95.3262 61.1105 96.4645 61.1105 96.9043C61.1105 98.3788 62.078 99.724 63.3332 100.862L65.6343 102.906C66.3403 103.475 67.4125 103.863 68.1969 103.863C69.4259 103.863 70.2366 103.294 70.4981 102.776C75.9894 93.3861 83.8341 81.7969 91.8096 72.3548C92.2541 71.8375 92.5941 72.0961 92.4372 72.7429C91.8096 75.1745 91.0251 77.4768 90.3191 79.7015C89.247 83.349 87.5734 88.7039 87.5734 89.9973C87.5734 91.0838 88.0964 92.0409 88.9855 92.8687C89.77 93.5672 90.659 94.2656 91.5481 94.9124C92.3326 95.4815 93.1432 95.8695 93.9277 95.8695C94.8167 95.8695 95.6012 95.5591 96.0458 94.9641C101.955 87.0483 108.074 80.4517 111.788 76.1058C112.755 74.9676 113.383 74.9676 113.2 75.7178C112.232 79.6757 111.16 84.7201 111.16 87.1517C111.16 88.2382 111.788 89.1954 112.938 90.0232L114.01 90.7992C114.533 91.1873 115.239 91.4459 116.05 91.4459C117.017 91.4459 117.723 91.1873 118.168 90.6181C123.293 84.2803 128.235 78.4081 132.21 73.4154C132.838 72.6394 133.701 73.105 133.361 73.7259C129.909 81.1502 124.967 90.9803 120.626 99.2842L118.142 104.018C117.436 103.113 115.579 101.586 112.127 101.586C110.715 101.586 108.597 101.845 106.218 102.414C91.888 105.803 77.9244 109.451 64.7714 113.357C60.1692 114.702 56.639 117.573 55.0439 121.04C54.5209 122.178 52.6643 125.567 52.6643 126.86C52.6643 128.645 54.7824 130.068 57.162 130.068C57.9465 130.068 58.8355 129.939 59.6462 129.551C76.8 121.428 95.1828 114.65 114.455 109.088C114.978 108.907 115.344 109.088 115.161 109.476C114.01 111.701 112.86 113.693 111.814 115.478C109.434 119.695 107.473 123.032 107.473 124.558C107.473 126.084 108.1 127.248 109.852 128.645C111.709 130.171 114.01 131.905 116.05 133.431C116.494 133.741 117.2 134 117.906 134C118.979 134 120.025 133.483 120.391 132.655C121.881 128.18 125.333 118.013 129.412 106.45C129.674 105.493 130.824 104.536 132.236 104.225C155.404 98.4046 173.604 95.1452 197.557 92.1961C200.041 91.8857 202.237 89.5834 202.237 87.7726C202.237 86.8672 201.531 86.505 200.302 86.4274L200.276 86.4791ZM249.07 32.8533C243.867 43.4077 236.44 52.4876 230.165 59.4981C229.642 60.0154 228.674 59.6274 228.831 59.0583C230.426 53.3672 236.78 40.8985 236.78 39.4239C236.78 38.4668 236.257 37.5097 235.29 36.8112L234.322 36.1127C233.616 35.5954 232.91 35.3367 232.283 35.3367C231.498 35.3367 230.688 35.7247 230.165 36.1645L222.555 43.7181C216.802 49.461 211.416 55.1521 204.957 60.6622C204.329 61.1795 203.179 60.6622 203.362 60.0931C205.035 54.5313 207.703 48.1934 209.638 43.2266C210.082 41.9591 211.416 41.6228 215.286 40.8726C220.594 39.8378 220.856 39.6568 222.268 37.7425C223.157 36.5266 223.235 36.2162 223.235 35.9575C223.235 35.2591 222.529 34.6124 221.562 34.8193C219.888 35.1297 216.175 35.9575 212.723 36.6042C213.874 34.3019 215.364 31.6116 216.358 29.6973C218.659 25.2737 219.548 23.9544 219.548 22.5317C219.548 20.6174 214.946 14.978 212.566 14.978C211.337 14.978 210.082 15.5471 209.638 16.7112C206.813 24.627 204.329 31.7927 202.133 38.3892C201.95 39.0877 201.244 39.2946 199.387 39.6568C194.785 40.5622 194.079 40.795 193.111 41.4417C191.961 42.1402 190.993 43.6664 190.993 44.5718C190.993 44.9598 191.255 45.4772 192.222 45.2703C194.34 44.8822 197.792 44.0544 199.466 43.744C199.832 43.6923 199.989 43.7958 199.649 44.1838C195.229 49.3575 189.137 55.9541 181.71 63.0938C181.004 63.7405 179.775 63.5336 179.932 62.7058C181.71 56.6266 183.122 53.2378 185.58 47.3656C185.659 47.3139 185.659 47.0552 185.659 46.7189C185.659 45.6324 181.606 42.6317 179.749 42.6317C176.664 42.6317 163.85 56.756 163.04 57.7907C162.412 58.6185 161.262 58.4892 161.811 57.4027C162.334 56.3162 176.297 26.8517 186.391 10.8649C186.836 10.0888 187.097 9.261 187.097 8.30386C187.097 5.61351 181.083 0 178.259 0C176.847 0 175.958 0.646718 175.618 1.6556L146.88 77.8649C146.801 78.046 146.618 78.6409 146.618 78.9514C146.618 79.7792 147.063 80.5552 147.69 81.3054L149.547 83.2197C149.991 83.7371 150.88 83.9958 151.587 83.9958C152.737 83.9958 153.626 83.556 153.966 82.8575C156.895 76.856 164.844 62.7834 173.683 52.7463C174.31 52.0479 175.278 52.4359 175.095 53.0568C172.166 60.7915 169.08 67.8795 166.622 75.1228C166.439 75.9506 167.067 76.7784 167.773 77.5544L170.152 79.9085C170.675 80.4259 171.564 80.7363 172.375 80.7363C173.264 80.7363 174.232 80.4259 174.755 79.8309C183.776 69.0178 189.79 62.2402 194.994 55.9282C195.517 55.3591 196.328 55.7471 196.223 56.3162C195.857 57.7907 191.359 69.2247 191.359 71.527C191.359 73.0533 195.151 76.9077 197.191 76.9077C198.08 76.9077 198.969 76.5973 199.387 76.0023C207.598 65.7842 214.318 58.2305 222.268 50.2371C222.895 49.5903 223.758 49.9784 223.497 50.5475L215.887 66.0687C215.181 67.4656 215.521 68.6297 216.515 69.7162L219.444 72.8463C220.071 73.4931 220.856 73.7517 221.745 73.7517C222.529 73.7517 223.34 73.4931 223.863 73.0533C229.432 67.5432 235.891 60.0672 241.095 54.4537C241.461 54.0656 242.062 54.2726 241.879 54.6348L214.998 104.432C214.554 105.26 214.371 106.036 214.371 106.734C214.371 108.39 215.26 109.994 217.012 111.261L222.137 114.961C222.581 115.349 223.209 115.607 223.993 115.607C225.066 115.607 226.112 115.09 226.478 114.262L255.817 37.044C255.895 36.7853 256 36.4749 256 36.0869C256 35.3108 255.634 34.483 255.032 33.8622C252.993 31.8185 252.104 31.5081 251.398 31.5081C250.43 31.5081 249.358 32.0255 249.018 32.8533H249.07ZM112.415 40.3293C111.003 39.1911 109.486 37.7683 108.074 36.5525C107.63 36.2421 107.002 35.9834 106.479 35.9834C105.695 35.9834 104.806 36.4232 104.544 37.1216L101.014 46.6413C100.753 47.2104 100.648 47.7795 100.648 48.1676C100.648 49.5645 101.432 51.1166 103.028 52.2031C104.701 53.3413 105.329 53.4707 105.956 53.4707C107.891 53.4707 110.009 49.5645 111.709 46.5637C112.415 45.1668 113.487 43.6147 113.487 42.6575C113.487 41.8297 113.121 40.9243 112.415 40.3035V40.3293ZM124.784 74.3467C124.156 74.9934 123.189 74.5278 123.293 74.088C124.653 67.8019 129.752 56.0834 132.236 53.7294C132.55 53.4448 133.125 53.3931 133.491 53.6517C135.662 55.1004 138.407 58.1788 138.407 58.929C135.06 63.5853 130.72 68.7849 124.784 74.3467Z" fill="url(#paint0_linear_2_69)"/>
<defs>
<linearGradient id="paint0_linear_2_69" x1="256" y1="7.98702e-06" x2="-13.643" y2="38.5348" gradientUnits="userSpaceOnUse">
<stop stop-color="#FFA600"/>
<stop offset="1" stop-color="#FF0083"/>
</linearGradient>
</defs>
</svg>
